<?xml version="1.0" encoding="utf-8"?>
<!-- Generator: Adobe Illustrator 13.0.0, SVG Export Plug-In . SVG Version: 6.00 Build 14948)  -->
<!DOCTYPE svg PUBLIC "-//W3C//DTD SVG 1.1//EN" "http://www.w3.org/Graphics/SVG/1.1/DTD/svg11.dtd">
<svg version="1.1" id="Layer_1" xmlns="http://www.w3.org/2000/svg" xmlns:xlink="http://www.w3.org/1999/xlink" x="0px" y="0px"
	 width="563px" height="557px" viewBox="0 0 563 557" enable-background="new 0 0 563 557" xml:space="preserve">
<line fill="none" stroke="#000000" stroke-width="4" x1="130" y1="464" x2="533" y2="464"/>
<line fill="none" stroke="#000000" stroke-width="4" x1="493" y1="497" x2="493" y2="72"/>
<line fill="none" stroke="#000000" stroke-width="4" x1="403" y1="426" x2="463" y2="426"/>
<line fill="none" stroke="#000000" stroke-width="4" x1="433" y1="426" x2="433" y2="464"/>
<line fill="none" stroke="#000000" stroke-width="4" x1="397" y1="414" x2="469" y2="414"/>
<polyline fill="none" stroke="#000000" stroke-width="4" points="493,382 461,382 461,414 "/>
<polyline fill="none" stroke="#000000" stroke-width="4" points="405,414 405,382 338,382 338,316 306,316 "/>
<line fill="none" stroke="#000000" stroke-width="4" x1="294" y1="258" x2="294" y2="318"/>
<line fill="none" stroke="#000000" stroke-width="4" x1="306" y1="252" x2="306" y2="324"/>
<polyline fill="none" stroke="#000000" stroke-width="4" points="338,128 338,260 306,260 "/>
<line fill="none" stroke="#000000" stroke-width="4" x1="294" y1="288" x2="208" y2="288"/>
<polyline fill="none" stroke="#000000" stroke-width="4" points="210,328 210,172 178,172 "/>
<line fill="none" stroke="#000000" stroke-width="4" x1="188" y1="328" x2="232" y2="328"/>
<line fill="none" stroke="#000000" stroke-width="4" x1="166" y1="114" x2="166" y2="174"/>
<line fill="none" stroke="#000000" stroke-width="4" x1="178" y1="108" x2="178" y2="180"/>
<polyline fill="none" stroke="#000000" stroke-width="4" points="210,64 210,116 178,116 "/>
<line fill="none" stroke="#000000" stroke-width="4" stroke-linecap="round" x1="166" y1="144" x2="114" y2="144"/>
<line fill="none" stroke="#000000" stroke-width="4" stroke-linecap="round" x1="178" y1="64" x2="242" y2="64"/>
<line fill="none" stroke="#000000" stroke-width="4" stroke-linecap="round" x1="178" y1="404" x2="242" y2="404"/>
<line fill="none" stroke="#000000" stroke-width="4" stroke-linecap="round" x1="192" y1="418" x2="228" y2="418"/>
<line fill="none" stroke="#000000" stroke-width="4" stroke-linecap="round" x1="206" y1="432" x2="214" y2="432"/>
<line fill="none" stroke="#000000" stroke-width="4" x1="210" y1="404" x2="210" y2="355"/>
<circle cx="210" cy="288" r="6"/>
<circle cx="493" cy="382" r="6"/>
<circle cx="433" cy="464" r="6"/>
<polygon points="228,360 192,360 210,328 "/>
<line fill="none" stroke="#000000" stroke-width="4" stroke-linecap="round" x1="306" y1="128" x2="370" y2="128"/>
<polyline fill="none" stroke="#000000" stroke-width="3" stroke-linecap="round" points="130,289 146,305 146,289 160,303 "/>
<path d="M179,322c-2-2-22-15-27-15c3,0,12-9,12-12C164,300,177,320,179,322z"/>
<polyline fill="none" stroke="#000000" stroke-width="3" stroke-linecap="round" points="130,321 146,337 146,321 160,335 "/>
<path d="M179,354c-2-2-22-15-27-15c3,0,12-9,12-12C164,332,177,352,179,354z"/>
<g>
	<path d="M27.145,478v-28.633H39.84c2.552,0,4.492,0.257,5.82,0.771s2.389,1.423,3.184,2.725c0.794,1.302,1.191,2.741,1.191,4.316
		c0,2.031-0.658,3.743-1.973,5.137c-1.315,1.394-3.347,2.278-6.094,2.656c1.002,0.481,1.764,0.957,2.285,1.426
		c1.106,1.016,2.155,2.285,3.145,3.809l4.98,7.793h-4.766l-3.789-5.957c-1.107-1.719-2.019-3.034-2.734-3.945
		c-0.716-0.911-1.357-1.55-1.924-1.914s-1.143-0.618-1.729-0.762c-0.43-0.091-1.133-0.137-2.109-0.137h-4.395V478H27.145z
		 M30.934,462.004h8.145c1.731,0,3.086-0.179,4.063-0.537s1.719-0.931,2.227-1.719s0.762-1.644,0.762-2.568
		c0-1.354-0.492-2.468-1.475-3.34c-0.983-0.872-2.536-1.309-4.658-1.309h-9.063V462.004z"/>
	<path d="M54.82,464.055c0-4.753,1.276-8.474,3.828-11.162c2.552-2.688,5.846-4.033,9.883-4.033c2.643,0,5.026,0.632,7.148,1.895
		c2.122,1.263,3.74,3.024,4.854,5.283s1.67,4.821,1.67,7.686c0,2.903-0.586,5.501-1.758,7.793s-2.832,4.026-4.98,5.205
		s-4.466,1.768-6.953,1.768c-2.695,0-5.104-0.651-7.227-1.953c-2.123-1.302-3.73-3.079-4.824-5.332S54.82,466.567,54.82,464.055z
		 M58.727,464.113c0,3.45,0.928,6.169,2.783,8.154s4.183,2.979,6.982,2.979c2.852,0,5.198-1.003,7.041-3.008
		c1.842-2.005,2.764-4.851,2.764-8.535c0-2.331-0.394-4.365-1.182-6.104c-0.788-1.738-1.94-3.086-3.457-4.043
		c-1.517-0.957-3.22-1.436-5.107-1.436c-2.683,0-4.99,0.921-6.924,2.764S58.727,459.804,58.727,464.113z"/>
	<path d="M92.086,478l-7.598-28.633h3.887l4.355,18.77c0.469,1.966,0.872,3.919,1.211,5.859c0.729-3.06,1.159-4.824,1.289-5.293
		l5.449-19.336h4.57l4.102,14.492c1.028,3.594,1.771,6.973,2.227,10.137c0.364-1.81,0.84-3.887,1.426-6.23l4.492-18.398h3.809
		L113.453,478h-3.652l-6.035-21.816c-0.508-1.823-0.808-2.942-0.898-3.359c-0.3,1.315-0.58,2.435-0.84,3.359L95.953,478H92.086z"/>
</g>
<g>
	<path d="M23.145,157v-28.633H35.84c2.552,0,4.492,0.257,5.82,0.771s2.389,1.423,3.184,2.725c0.794,1.302,1.191,2.741,1.191,4.316
		c0,2.031-0.658,3.743-1.973,5.137c-1.315,1.394-3.347,2.278-6.094,2.656c1.002,0.481,1.764,0.957,2.285,1.426
		c1.106,1.016,2.155,2.285,3.145,3.809l4.98,7.793h-4.766l-3.789-5.957c-1.107-1.719-2.019-3.034-2.734-3.945
		c-0.716-0.911-1.357-1.55-1.924-1.914s-1.143-0.618-1.729-0.762c-0.43-0.091-1.133-0.137-2.109-0.137h-4.395V157H23.145z
		 M26.934,141.004h8.145c1.731,0,3.086-0.179,4.063-0.537s1.719-0.931,2.227-1.719s0.762-1.644,0.762-2.568
		c0-1.354-0.492-2.468-1.475-3.34c-0.983-0.872-2.536-1.309-4.658-1.309h-9.063V141.004z"/>
	<path d="M50.684,147.801l3.574-0.313c0.169,1.433,0.563,2.607,1.182,3.525c0.618,0.918,1.579,1.66,2.881,2.227
		c1.302,0.566,2.767,0.85,4.395,0.85c1.445,0,2.721-0.215,3.828-0.645c1.106-0.43,1.93-1.019,2.471-1.768
		c0.54-0.749,0.811-1.565,0.811-2.451c0-0.898-0.261-1.683-0.781-2.354c-0.521-0.671-1.38-1.233-2.578-1.689
		c-0.769-0.3-2.468-0.765-5.098-1.396c-2.63-0.632-4.473-1.228-5.527-1.787c-1.367-0.716-2.386-1.604-3.057-2.666
		c-0.671-1.062-1.006-2.249-1.006-3.564c0-1.445,0.41-2.796,1.23-4.053s2.018-2.21,3.594-2.861c1.575-0.651,3.327-0.977,5.254-0.977
		c2.122,0,3.994,0.342,5.615,1.025s2.868,1.689,3.74,3.018c0.872,1.328,1.341,2.832,1.406,4.512l-3.633,0.273
		c-0.195-1.81-0.856-3.177-1.982-4.102c-1.126-0.925-2.79-1.387-4.99-1.387c-2.292,0-3.962,0.42-5.01,1.26
		c-1.048,0.84-1.572,1.853-1.572,3.037c0,1.028,0.371,1.875,1.113,2.539c0.729,0.664,2.633,1.345,5.713,2.041
		c3.079,0.696,5.192,1.306,6.338,1.826c1.667,0.769,2.897,1.741,3.691,2.92c0.794,1.179,1.191,2.536,1.191,4.072
		c0,1.523-0.437,2.959-1.309,4.307c-0.873,1.348-2.126,2.396-3.76,3.145c-1.634,0.749-3.474,1.123-5.518,1.123
		c-2.591,0-4.763-0.378-6.514-1.133c-1.751-0.755-3.125-1.892-4.121-3.408S50.735,149.715,50.684,147.801z"/>
	<path d="M85.938,157v-25.254h-9.434v-3.379h22.695v3.379h-9.473V157H85.938z"/>
</g>
<g>
	<path d="M172.27,48l-11.094-28.633h4.102l7.441,20.801c0.599,1.667,1.1,3.229,1.504,4.688c0.442-1.563,0.957-3.125,1.543-4.688
		l7.734-20.801h3.867L176.156,48H172.27z"/>
	<path d="M189.881,57V36.957h8.887c1.786,0,3.145,0.18,4.074,0.54s1.672,0.996,2.229,1.907c0.556,0.911,0.834,1.919,0.834,3.021
		c0,1.422-0.46,2.62-1.381,3.596c-0.921,0.976-2.343,1.595-4.266,1.859c0.702,0.337,1.235,0.67,1.6,0.998
		c0.774,0.711,1.508,1.6,2.201,2.666L207.545,57h-3.336l-2.652-4.17c-0.775-1.203-1.413-2.124-1.914-2.762
		c-0.501-0.638-0.95-1.085-1.347-1.34s-0.8-0.433-1.21-0.533c-0.301-0.063-0.793-0.096-1.477-0.096h-3.076V57H189.881z
		 M192.533,45.803h5.701c1.212,0,2.16-0.125,2.844-0.376s1.203-0.651,1.559-1.203s0.533-1.15,0.533-1.798
		c0-0.948-0.344-1.728-1.032-2.338c-0.688-0.61-1.775-0.916-3.261-0.916h-6.344V45.803z"/>
	<path d="M209.158,50.561l2.502-0.219c0.118,1.003,0.394,1.825,0.827,2.468c0.433,0.643,1.105,1.162,2.017,1.559
		c0.911,0.396,1.937,0.595,3.076,0.595c1.012,0,1.905-0.15,2.68-0.451c0.774-0.301,1.351-0.713,1.729-1.237
		c0.378-0.524,0.567-1.096,0.567-1.716c0-0.629-0.183-1.178-0.547-1.647c-0.365-0.47-0.966-0.863-1.805-1.183
		c-0.538-0.21-1.728-0.535-3.568-0.978c-1.841-0.442-3.131-0.859-3.869-1.251c-0.957-0.501-1.67-1.123-2.14-1.866
		c-0.47-0.743-0.704-1.574-0.704-2.495c0-1.012,0.287-1.957,0.861-2.837s1.413-1.547,2.516-2.003
		c1.103-0.456,2.329-0.684,3.678-0.684c1.485,0,2.796,0.239,3.931,0.718s2.007,1.183,2.618,2.112c0.61,0.93,0.938,1.982,0.984,3.158
		l-2.543,0.191c-0.137-1.267-0.6-2.224-1.388-2.871c-0.789-0.647-1.953-0.971-3.493-0.971c-1.604,0-2.773,0.294-3.507,0.882
		c-0.734,0.588-1.101,1.297-1.101,2.126c0,0.72,0.26,1.313,0.779,1.777c0.51,0.465,1.843,0.941,3.999,1.429
		c2.155,0.487,3.634,0.914,4.437,1.278c1.167,0.538,2.028,1.219,2.584,2.044c0.556,0.825,0.834,1.775,0.834,2.851
		c0,1.066-0.306,2.071-0.916,3.015c-0.611,0.943-1.488,1.677-2.632,2.201c-1.144,0.524-2.432,0.786-3.862,0.786
		c-1.814,0-3.334-0.265-4.56-0.793c-1.226-0.528-2.188-1.324-2.885-2.386S209.194,51.9,209.158,50.561z"/>
	<path d="M233.836,57V39.322h-6.604v-2.365h15.887v2.365h-6.631V57H233.836z"/>
</g>
<g>
	<path d="M193.969,160v-28.633h5.703l6.777,20.273c0.625,1.888,1.081,3.301,1.367,4.238c0.325-1.042,0.833-2.571,1.523-4.59
		l6.855-19.922h5.098V160h-3.652v-23.965L209.32,160h-3.418l-8.281-24.375V160H193.969z"/>
	<path d="M226.139,169v-14.52h2.215v2.201c0.565-1.03,1.087-1.709,1.565-2.037s1.005-0.492,1.579-0.492
		c0.829,0,1.672,0.265,2.529,0.793l-0.848,2.283c-0.602-0.355-1.203-0.533-1.805-0.533c-0.538,0-1.021,0.162-1.449,0.485
		c-0.429,0.323-0.734,0.772-0.916,1.347c-0.273,0.875-0.41,1.832-0.41,2.871V169H226.139z"/>
	<path d="M234.506,164.666l2.434-0.383c0.137,0.976,0.517,1.723,1.142,2.242c0.624,0.52,1.497,0.779,2.618,0.779
		c1.13,0,1.969-0.23,2.516-0.69s0.82-1,0.82-1.62c0-0.556-0.242-0.993-0.725-1.313c-0.337-0.219-1.176-0.497-2.516-0.834
		c-1.805-0.456-3.056-0.85-3.753-1.183s-1.226-0.793-1.586-1.381c-0.36-0.588-0.54-1.237-0.54-1.948
		c0-0.647,0.148-1.246,0.444-1.798c0.296-0.552,0.699-1.01,1.21-1.374c0.383-0.282,0.904-0.521,1.565-0.718
		c0.661-0.196,1.369-0.294,2.126-0.294c1.139,0,2.14,0.164,3.001,0.492s1.497,0.772,1.907,1.333s0.692,1.311,0.848,2.249
		l-2.406,0.328c-0.109-0.747-0.426-1.331-0.95-1.75c-0.524-0.419-1.265-0.629-2.222-0.629c-1.13,0-1.937,0.187-2.42,0.561
		c-0.483,0.374-0.725,0.812-0.725,1.313c0,0.319,0.1,0.606,0.301,0.861c0.2,0.265,0.515,0.483,0.943,0.656
		c0.246,0.091,0.971,0.301,2.174,0.629c1.741,0.465,2.955,0.846,3.644,1.142c0.688,0.296,1.228,0.727,1.62,1.292
		c0.392,0.565,0.588,1.267,0.588,2.105c0,0.82-0.239,1.593-0.718,2.317s-1.169,1.285-2.071,1.682s-1.923,0.595-3.063,0.595
		c-1.887,0-3.325-0.392-4.313-1.176C235.41,167.368,234.779,166.206,234.506,164.666z"/>
	<path d="M254.863,166.799l0.355,2.174c-0.693,0.146-1.313,0.219-1.859,0.219c-0.894,0-1.586-0.142-2.078-0.424
		s-0.839-0.654-1.039-1.114c-0.201-0.46-0.301-1.429-0.301-2.905v-8.354h-1.805v-1.914h1.805v-3.596l2.447-1.477v5.072h2.475v1.914
		h-2.475v8.49c0,0.702,0.043,1.153,0.13,1.354c0.086,0.2,0.228,0.36,0.424,0.479c0.196,0.118,0.476,0.178,0.841,0.178
		C254.057,166.895,254.417,166.862,254.863,166.799z"/>
</g>
<g>
	<path d="M300.27,112l-11.094-28.633h4.102l7.441,20.801c0.599,1.667,1.1,3.229,1.504,4.688c0.442-1.563,0.957-3.125,1.543-4.688
		l7.734-20.801h3.867L304.156,112H300.27z"/>
	<path d="M317.84,121v-20.043h6.904c1.559,0,2.748,0.096,3.568,0.287c1.148,0.265,2.128,0.743,2.939,1.436
		c1.057,0.894,1.848,2.035,2.372,3.425s0.786,2.979,0.786,4.765c0,1.522-0.178,2.871-0.533,4.047s-0.812,2.148-1.367,2.919
		c-0.557,0.771-1.164,1.376-1.825,1.818s-1.458,0.777-2.393,1.005s-2.008,0.342-3.22,0.342H317.84z M320.492,118.635h4.279
		c1.321,0,2.358-0.123,3.11-0.369s1.351-0.593,1.798-1.039c0.629-0.629,1.119-1.475,1.47-2.536s0.526-2.35,0.526-3.862
		c0-2.097-0.344-3.707-1.032-4.833s-1.524-1.88-2.509-2.263c-0.711-0.273-1.855-0.41-3.432-0.41h-4.211V118.635z"/>
	<path d="M338.061,121v-20.043h6.904c1.559,0,2.748,0.096,3.568,0.287c1.148,0.265,2.128,0.743,2.939,1.436
		c1.057,0.894,1.848,2.035,2.372,3.425s0.786,2.979,0.786,4.765c0,1.522-0.178,2.871-0.533,4.047s-0.812,2.148-1.367,2.919
		c-0.557,0.771-1.164,1.376-1.825,1.818s-1.458,0.777-2.393,1.005s-2.008,0.342-3.22,0.342H338.061z M340.713,118.635h4.279
		c1.321,0,2.358-0.123,3.11-0.369s1.351-0.593,1.798-1.039c0.629-0.629,1.119-1.475,1.47-2.536s0.526-2.35,0.526-3.862
		c0-2.097-0.344-3.707-1.032-4.833s-1.524-1.88-2.509-2.263c-0.711-0.273-1.855-0.41-3.432-0.41h-4.211V118.635z"/>
</g>
<g>
	<path d="M321.969,304v-28.633h5.703l6.777,20.273c0.625,1.888,1.08,3.301,1.367,4.238c0.325-1.042,0.833-2.571,1.523-4.59
		l6.855-19.922h5.098V304h-3.652v-23.965L337.32,304h-3.418l-8.281-24.375V304H321.969z"/>
	<path d="M353.182,308.666l2.434-0.383c0.137,0.976,0.518,1.723,1.142,2.242s1.497,0.779,2.618,0.779c1.13,0,1.969-0.23,2.516-0.69
		s0.82-1,0.82-1.62c0-0.556-0.242-0.993-0.725-1.313c-0.338-0.219-1.176-0.497-2.516-0.834c-1.805-0.456-3.056-0.85-3.753-1.183
		s-1.226-0.793-1.586-1.381s-0.54-1.237-0.54-1.948c0-0.647,0.148-1.246,0.444-1.798s0.699-1.01,1.21-1.374
		c0.383-0.282,0.904-0.521,1.565-0.718s1.369-0.294,2.126-0.294c1.139,0,2.14,0.164,3.001,0.492s1.497,0.772,1.907,1.333
		s0.692,1.311,0.848,2.249l-2.406,0.328c-0.109-0.747-0.426-1.331-0.95-1.75s-1.265-0.629-2.222-0.629
		c-1.131,0-1.938,0.187-2.42,0.561c-0.483,0.374-0.725,0.812-0.725,1.313c0,0.319,0.1,0.606,0.301,0.861
		c0.2,0.265,0.515,0.483,0.943,0.656c0.246,0.091,0.971,0.301,2.174,0.629c1.74,0.465,2.955,0.846,3.644,1.142
		s1.228,0.727,1.62,1.292c0.392,0.565,0.588,1.267,0.588,2.105c0,0.82-0.239,1.593-0.718,2.317s-1.169,1.285-2.071,1.682
		s-1.924,0.595-3.063,0.595c-1.887,0-3.324-0.392-4.313-1.176S353.455,310.206,353.182,308.666z"/>
	<path d="M368.754,313v-12.605h-2.174v-1.914h2.174v-1.545c0-0.976,0.086-1.7,0.26-2.174c0.236-0.638,0.654-1.155,1.251-1.552
		s1.433-0.595,2.509-0.595c0.692,0,1.458,0.082,2.297,0.246l-0.369,2.146c-0.511-0.091-0.994-0.137-1.449-0.137
		c-0.748,0-1.276,0.159-1.586,0.479c-0.311,0.319-0.465,0.916-0.465,1.791v1.34h2.83v1.914h-2.83V313H368.754z"/>
</g>
<g>
	<path d="M471.516,521.961l3.789,0.957c-0.795,3.112-2.224,5.485-4.287,7.119c-2.064,1.634-4.587,2.451-7.568,2.451
		c-3.086,0-5.596-0.628-7.529-1.885s-3.405-3.076-4.414-5.459c-1.01-2.383-1.514-4.941-1.514-7.676c0-2.981,0.569-5.583,1.709-7.803
		c1.139-2.22,2.76-3.906,4.863-5.059c2.103-1.152,4.417-1.729,6.943-1.729c2.864,0,5.273,0.729,7.227,2.188s3.313,3.509,4.082,6.152
		l-3.73,0.879c-0.664-2.083-1.628-3.601-2.891-4.551c-1.264-0.95-2.852-1.426-4.766-1.426c-2.201,0-4.04,0.527-5.518,1.582
		c-1.479,1.055-2.517,2.471-3.115,4.248c-0.6,1.777-0.898,3.61-0.898,5.498c0,2.435,0.354,4.561,1.064,6.377
		c0.709,1.816,1.813,3.174,3.311,4.072c1.497,0.898,3.118,1.348,4.863,1.348c2.122,0,3.919-0.612,5.391-1.836
		C469.998,526.187,470.994,524.37,471.516,521.961z"/>
	<path d="M478.82,518.055c0-4.753,1.275-8.474,3.828-11.162c2.552-2.688,5.846-4.033,9.883-4.033c2.643,0,5.025,0.632,7.148,1.895
		c2.122,1.263,3.74,3.024,4.854,5.283s1.67,4.821,1.67,7.686c0,2.903-0.586,5.501-1.758,7.793s-2.832,4.026-4.98,5.205
		s-4.467,1.768-6.953,1.768c-2.695,0-5.104-0.651-7.227-1.953c-2.123-1.302-3.73-3.079-4.824-5.332S478.82,520.567,478.82,518.055z
		 M482.727,518.113c0,3.45,0.928,6.169,2.783,8.154s4.183,2.979,6.982,2.979c2.852,0,5.198-1.003,7.041-3.008
		c1.842-2.005,2.764-4.851,2.764-8.535c0-2.331-0.395-4.365-1.182-6.104c-0.788-1.738-1.94-3.086-3.457-4.043
		c-1.518-0.957-3.22-1.436-5.107-1.436c-2.683,0-4.99,0.921-6.924,2.764S482.727,513.804,482.727,518.113z"/>
	<path d="M510.93,532v-28.633h3.789v25.254h14.102V532H510.93z"/>
</g>
<g>
	<path d="M398.969,366v-28.633h5.703l6.777,20.273c0.625,1.888,1.08,3.301,1.367,4.238c0.325-1.042,0.833-2.571,1.523-4.59
		l6.855-19.922h5.098V366h-3.652v-23.965L414.32,366h-3.418l-8.281-24.375V366H398.969z"/>
	<path d="M430.182,370.666l2.434-0.383c0.137,0.976,0.518,1.723,1.142,2.242s1.497,0.779,2.618,0.779c1.13,0,1.969-0.23,2.516-0.69
		s0.82-1,0.82-1.62c0-0.556-0.242-0.993-0.725-1.313c-0.338-0.219-1.176-0.497-2.516-0.834c-1.805-0.456-3.056-0.85-3.753-1.183
		s-1.226-0.793-1.586-1.381s-0.54-1.237-0.54-1.948c0-0.647,0.148-1.246,0.444-1.798s0.699-1.01,1.21-1.374
		c0.383-0.282,0.904-0.521,1.565-0.718s1.369-0.294,2.126-0.294c1.139,0,2.14,0.164,3.001,0.492s1.497,0.772,1.907,1.333
		s0.692,1.311,0.848,2.249l-2.406,0.328c-0.109-0.747-0.426-1.331-0.95-1.75s-1.265-0.629-2.222-0.629
		c-1.131,0-1.938,0.187-2.42,0.561c-0.483,0.374-0.725,0.812-0.725,1.313c0,0.319,0.1,0.606,0.301,0.861
		c0.2,0.265,0.515,0.483,0.943,0.656c0.246,0.091,0.971,0.301,2.174,0.629c1.74,0.465,2.955,0.846,3.644,1.142
		s1.228,0.727,1.62,1.292c0.392,0.565,0.588,1.267,0.588,2.105c0,0.82-0.239,1.593-0.718,2.317s-1.169,1.285-2.071,1.682
		s-1.924,0.595-3.063,0.595c-1.887,0-3.324-0.392-4.313-1.176S430.455,372.206,430.182,370.666z"/>
	<path d="M455.105,370.324l2.543,0.314c-0.401,1.485-1.145,2.639-2.229,3.459c-1.085,0.82-2.471,1.23-4.156,1.23
		c-2.124,0-3.808-0.654-5.052-1.962s-1.866-3.143-1.866-5.503c0-2.442,0.629-4.339,1.887-5.688s2.889-2.023,4.895-2.023
		c1.941,0,3.527,0.661,4.758,1.982s1.846,3.181,1.846,5.578c0,0.146-0.005,0.364-0.014,0.656h-10.828
		c0.091,1.595,0.542,2.816,1.354,3.664c0.811,0.848,1.822,1.271,3.035,1.271c0.902,0,1.672-0.237,2.311-0.711
		C454.226,372.12,454.731,371.363,455.105,370.324z M447.025,366.346h8.107c-0.109-1.222-0.42-2.138-0.93-2.748
		c-0.784-0.948-1.801-1.422-3.049-1.422c-1.131,0-2.08,0.378-2.851,1.135S447.107,365.079,447.025,366.346z"/>
	<path d="M460.684,375v-20.043h2.461V375H460.684z"/>
</g>
</svg>
